<svg xmlns="http://www.w3.org/2000/svg" width="481" height="542" viewBox="0 0 481 542">
<g>
<path d="M 381.25 418.41 C380.93,418.74 363.46,419.00 342.43,419.00 L 304.19 419.00 L 282.40 389.25 C260.48,359.32 258.32,356.41 238.62,330.13 C232.69,322.22 228.22,315.44 228.67,315.05 C229.13,314.66 233.55,310.95 238.50,306.80 C243.45,302.65 252.45,294.87 258.50,289.51 C272.90,276.77 275.91,274.50 276.93,275.60 C278.15,276.90 319.70,332.89 332.15,350.00 C337.96,357.98 348.86,372.83 356.39,383.00 C377.70,411.83 381.89,417.78 381.25,418.41 ZM 206.00 378.00 L 206.00 419.00 L 172.17 419.00 C153.56,419.00 138.03,418.70 137.67,418.33 C137.30,417.97 137.00,412.67 137.00,406.56 L 137.00 395.46 L 164.11 371.98 C195.23,345.03 204.73,337.00 205.47,337.00 C205.76,337.00 206.00,355.45 206.00,378.00 Z" fill="rgb(40,58,73)"/>
<path d="M 147.28 365.75 C142.64,369.74 138.43,373.00 137.92,373.00 C137.36,373.00 137.00,322.28 137.00,244.52 L 137.00 116.04 L 139.25 115.49 C140.49,115.19 155.90,115.07 173.50,115.22 L 205.50 115.50 L 205.76 181.75 C205.90,218.19 206.35,247.99 206.76,247.99 C207.17,247.98 211.53,242.34 216.46,235.45 C217.20,234.42 217.88,233.46 218.53,232.56 C224.56,224.10 226.81,220.94 228.79,221.10 C230.19,221.22 231.45,222.98 233.80,225.69 C236.55,228.89 244.70,238.34 251.90,246.70 L 264.99 261.89 L 253.38 272.20 C246.99,277.86 239.44,284.52 236.60,287.00 C233.76,289.48 221.56,300.28 209.47,311.01 C181.19,336.12 157.91,356.61 147.28,365.75 ZM 286.11 246.75 C283.20,250.74 280.43,254.00 279.96,254.00 C278.29,254.00 239.00,207.99 239.00,206.04 C239.00,205.02 243.73,198.13 255.50,182.01 C261.55,173.73 268.08,164.75 270.00,162.07 C271.92,159.38 280.24,147.96 288.47,136.69 C302.22,117.87 303.74,116.14 306.97,115.61 C311.67,114.83 374.77,115.06 378.14,115.87 C380.72,116.49 380.40,117.03 362.38,142.00 C352.26,156.02 340.70,172.00 336.70,177.50 C332.69,183.00 323.85,195.15 317.04,204.50 C310.24,213.85 301.68,225.55 298.04,230.50 C294.39,235.45 289.02,242.76 286.11,246.75 Z" fill="rgb(241,174,68)"/>
<path d="M 0.00 271.00 L 0.00 0.00 L 240.50 0.00 L 481.00 0.00 L 481.00 271.00 L 481.00 542.00 L 240.50 542.00 L 0.00 542.00 L 0.00 271.00 ZM 206.00 378.00 C206.00,355.45 205.76,337.00 205.47,337.00 C204.73,337.00 195.23,345.03 164.11,371.98 L 137.00 395.46 L 137.00 406.56 C137.00,412.67 137.30,417.97 137.67,418.33 C138.03,418.70 153.56,419.00 172.17,419.00 L 206.00 419.00 L 206.00 378.00 ZM 381.25 418.41 C381.89,417.78 377.70,411.83 356.39,383.00 C348.86,372.83 337.96,357.98 332.15,350.00 C319.70,332.89 278.15,276.90 276.93,275.60 C275.91,274.50 272.90,276.77 258.50,289.51 C252.45,294.87 243.45,302.65 238.50,306.80 C233.55,310.95 229.13,314.66 228.67,315.05 C228.22,315.44 232.69,322.22 238.62,330.13 C258.32,356.41 260.48,359.32 282.40,389.25 L 304.19 419.00 L 342.43 419.00 C363.46,419.00 380.93,418.74 381.25,418.41 ZM 147.28 365.75 C157.91,356.61 181.19,336.12 209.47,311.01 C221.56,300.28 233.76,289.48 236.60,287.00 C239.44,284.52 246.99,277.86 253.38,272.20 L 264.99 261.89 L 251.90 246.70 C244.70,238.34 236.55,228.89 233.80,225.69 C227.76,218.70 228.91,218.05 216.46,235.45 C211.53,242.34 207.17,247.98 206.76,247.99 C206.35,247.99 205.90,218.19 205.76,181.75 L 205.50 115.50 L 173.50 115.22 C155.90,115.07 140.49,115.19 139.25,115.49 L 137.00 116.04 L 137.00 244.52 C137.00,322.28 137.36,373.00 137.92,373.00 C138.43,373.00 142.64,369.74 147.28,365.75 ZM 286.11 246.75 C289.02,242.76 294.39,235.45 298.04,230.50 C301.68,225.55 310.24,213.85 317.04,204.50 C323.85,195.15 332.69,183.00 336.70,177.50 C340.70,172.00 352.26,156.02 362.38,142.00 C380.40,117.03 380.72,116.49 378.14,115.87 C374.77,115.06 311.67,114.83 306.97,115.61 C303.74,116.14 302.22,117.87 288.47,136.69 C280.24,147.96 271.92,159.38 270.00,162.07 C268.08,164.75 261.55,173.73 255.50,182.01 C243.73,198.13 239.00,205.02 239.00,206.04 C239.00,207.99 278.29,254.00 279.96,254.00 C280.43,254.00 283.20,250.74 286.11,246.75 Z" fill="rgb(254,254,254)"/>
</g>
</svg>
