<svg xmlns="http://www.w3.org/2000/svg" width="1024" height="1024" viewBox="0 0 1024 1024">
<g>
<path d="M 626.35 663.25 C626.09,663.66 608.62,664.00 587.52,664.00 L 549.16 664.00 L 542.39 654.75 C535.38,645.18 521.46,626.23 515.01,617.50 C512.98,614.75 507.54,607.33 502.92,601.00 C498.30,594.67 489.64,583.05 483.69,575.16 C477.73,567.27 473.00,560.72 473.18,560.61 C474.28,559.93 488.92,547.38 503.38,534.71 C512.67,526.58 520.62,520.05 521.06,520.21 C522.05,520.58 539.23,543.33 562.43,575.01 C579.96,598.94 602.30,629.31 618.66,651.45 C623.14,657.53 626.60,662.83 626.35,663.25 ZM 451.00 623.00 L 451.00 664.00 L 417.17 664.00 C398.56,664.00 383.03,663.70 382.67,663.33 C382.30,662.97 382.00,657.65 382.00,651.52 L 382.00 640.36 L 401.21 623.93 C411.77,614.89 426.96,601.76 434.96,594.75 C442.96,587.74 449.84,582.01 450.25,582.00 C450.66,582.00 451.00,600.45 451.00,623.00 Z" fill="rgb(40,58,73)"/>
<path d="M 399.21 604.81 C390.81,612.07 383.49,618.00 382.96,618.00 C382.34,618.00 382.08,571.74 382.25,489.25 L 382.50 360.50 L 450.50 360.50 L 451.50 493.32 L 455.05 488.91 C457.01,486.48 461.37,480.64 464.75,475.91 C473.19,464.13 473.33,464.04 476.73,468.13 C478.25,469.97 486.35,479.47 494.73,489.25 L 509.95 507.03 L 502.23 513.75 C493.22,521.59 423.16,583.70 418.00,588.42 C416.08,590.18 407.62,597.56 399.21,604.81 ZM 538.08 482.25 C531.32,491.46 525.49,499.00 525.11,499.00 C524.30,499.00 517.64,492.11 513.42,486.91 C511.81,484.93 507.80,480.19 504.50,476.37 C494.80,465.13 489.69,458.96 486.62,454.79 C485.59,453.39 484.82,452.51 484.59,451.50 C484.06,449.24 486.19,446.37 494.01,435.81 C494.57,435.04 495.17,434.23 495.80,433.38 C501.14,426.16 509.33,414.95 514.00,408.46 C518.67,401.96 526.35,391.44 531.05,385.08 C535.76,378.71 541.52,370.75 543.86,367.38 C547.95,361.49 548.29,361.24 553.30,360.64 C561.26,359.69 622.31,359.91 623.88,360.90 C624.74,361.45 624.94,362.29 624.42,363.14 C623.54,364.58 591.94,408.51 586.62,415.71 C584.90,418.03 580.35,424.28 576.50,429.60 C568.61,440.52 556.14,457.61 538.08,482.25 Z" fill="rgb(241,174,69)"/>
<path d="M 0.00 512.00 L 0.00 0.00 L 512.00 0.00 L 1024.00 0.00 L 1024.00 512.00 L 1024.00 1024.00 L 512.00 1024.00 L 0.00 1024.00 L 0.00 512.00 ZM 451.00 623.00 C451.00,600.45 450.66,582.00 450.25,582.00 C449.84,582.01 442.96,587.74 434.96,594.75 C426.96,601.76 411.77,614.89 401.21,623.93 L 382.00 640.36 L 382.00 651.52 C382.00,657.65 382.30,662.97 382.67,663.33 C383.03,663.70 398.56,664.00 417.17,664.00 L 451.00 664.00 L 451.00 623.00 ZM 626.35 663.25 C626.60,662.83 623.14,657.53 618.66,651.45 C602.30,629.31 579.96,598.94 562.43,575.01 C539.23,543.33 522.05,520.58 521.06,520.21 C520.62,520.05 512.67,526.58 503.38,534.71 C488.92,547.38 474.28,559.93 473.18,560.61 C473.00,560.72 477.73,567.27 483.69,575.16 C489.64,583.05 498.30,594.67 502.92,601.00 C507.54,607.33 512.98,614.75 515.01,617.50 C521.46,626.23 535.38,645.18 542.39,654.75 L 549.16 664.00 L 587.52 664.00 C608.62,664.00 626.09,663.66 626.35,663.25 ZM 399.21 604.81 C407.62,597.56 416.08,590.18 418.00,588.42 C423.16,583.70 493.22,521.59 502.23,513.75 L 509.95 507.03 L 494.73 489.25 C486.35,479.47 478.25,469.97 476.73,468.13 C473.33,464.04 473.19,464.13 464.75,475.91 C461.37,480.64 457.01,486.48 455.05,488.91 L 451.50 493.32 L 451.00 426.91 L 450.50 360.50 L 416.50 360.50 L 382.50 360.50 L 382.25 489.25 C382.08,571.74 382.34,618.00 382.96,618.00 C383.49,618.00 390.81,612.07 399.21,604.81 ZM 538.08 482.25 C556.14,457.61 568.61,440.52 576.50,429.60 C580.35,424.28 584.90,418.03 586.62,415.71 C591.94,408.51 623.54,364.58 624.42,363.14 C624.94,362.29 624.74,361.45 623.88,360.90 C622.31,359.91 561.26,359.69 553.30,360.64 C548.29,361.24 547.95,361.49 543.86,367.38 C541.52,370.75 535.76,378.71 531.05,385.08 C526.35,391.44 518.67,401.96 514.00,408.46 C509.33,414.95 501.14,426.16 495.80,433.38 C482.64,451.18 483.13,450.05 486.62,454.79 C489.69,458.96 494.80,465.13 504.50,476.37 C507.80,480.19 511.81,484.93 513.42,486.91 C517.64,492.11 524.30,499.00 525.11,499.00 C525.49,499.00 531.32,491.46 538.08,482.25 Z" fill="rgb(254,254,254)"/>
</g>
</svg>
